<mxfile host="www.draw.io" modified="2019-12-16T07:07:58.632Z" agent="Mozilla/5.0 (Windows NT 6.1; Win64; x64) AppleWebKit/537.36 (KHTML, like Gecko) Chrome/78.0.3904.108 Safari/537.36" etag="6ArsjQdnpD0V3hyAKBw-" version="12.4.2" type="github" pages="1">
  <diagram id="3xuTFxayRsdmIPjW5-oV" name="Страница 1">
    <mxGraphModel dx="774" dy="3035" grid="1" gridSize="10" guides="1" tooltips="1" connect="1" arrows="1" fold="1" page="1" pageScale="1" pageWidth="1654" pageHeight="2336" math="0" shadow="0">
      <root>
        <mxCell id="0"/>
        <mxCell id="1" parent="0"/>
        <mxCell id="f0zCHSIk-jJhl_KyQ2l7-21" style="edgeStyle=none;rounded=0;orthogonalLoop=1;jettySize=auto;html=1;exitX=0.5;exitY=1;exitDx=0;exitDy=0;entryX=0.5;entryY=0;entryDx=0;entryDy=0;strokeWidth=3;" edge="1" parent="1" source="f0zCHSIk-jJhl_KyQ2l7-1" target="f0zCHSIk-jJhl_KyQ2l7-20">
          <mxGeometry relative="1" as="geometry"/>
        </mxCell>
        <mxCell id="f0zCHSIk-jJhl_KyQ2l7-1" value="Начинается&lt;br&gt;бой" style="shape=hexagon;perimeter=hexagonPerimeter2;whiteSpace=wrap;html=1;fillColor=#dae8fc;strokeColor=#6c8ebf;" vertex="1" parent="1">
          <mxGeometry x="330" y="-40" width="120" height="80" as="geometry"/>
        </mxCell>
        <mxCell id="f0zCHSIk-jJhl_KyQ2l7-9" style="edgeStyle=none;rounded=0;orthogonalLoop=1;jettySize=auto;html=1;exitX=0.5;exitY=1;exitDx=0;exitDy=0;entryX=0.5;entryY=0;entryDx=0;entryDy=0;strokeWidth=3;" edge="1" parent="1" source="f0zCHSIk-jJhl_KyQ2l7-13" target="f0zCHSIk-jJhl_KyQ2l7-6">
          <mxGeometry relative="1" as="geometry">
            <mxPoint x="390" y="260" as="sourcePoint"/>
          </mxGeometry>
        </mxCell>
        <mxCell id="f0zCHSIk-jJhl_KyQ2l7-12" value="" style="edgeStyle=none;rounded=0;orthogonalLoop=1;jettySize=auto;html=1;strokeWidth=3;" edge="1" parent="1" source="f0zCHSIk-jJhl_KyQ2l7-6" target="f0zCHSIk-jJhl_KyQ2l7-10">
          <mxGeometry relative="1" as="geometry"/>
        </mxCell>
        <mxCell id="f0zCHSIk-jJhl_KyQ2l7-28" style="edgeStyle=orthogonalEdgeStyle;curved=1;rounded=0;orthogonalLoop=1;jettySize=auto;html=1;exitX=0;exitY=0.5;exitDx=0;exitDy=0;entryX=0;entryY=1;entryDx=0;entryDy=0;strokeWidth=3;" edge="1" parent="1" source="f0zCHSIk-jJhl_KyQ2l7-6" target="f0zCHSIk-jJhl_KyQ2l7-13">
          <mxGeometry relative="1" as="geometry">
            <Array as="points">
              <mxPoint x="310" y="310"/>
              <mxPoint x="310" y="240"/>
            </Array>
          </mxGeometry>
        </mxCell>
        <mxCell id="f0zCHSIk-jJhl_KyQ2l7-6" value="Ты&lt;br&gt;Клирик?" style="rhombus;whiteSpace=wrap;html=1;fillColor=#f5f5f5;strokeColor=#666666;fontColor=#333333;" vertex="1" parent="1">
          <mxGeometry x="330" y="270" width="120" height="80" as="geometry"/>
        </mxCell>
        <mxCell id="f0zCHSIk-jJhl_KyQ2l7-15" style="edgeStyle=none;rounded=0;orthogonalLoop=1;jettySize=auto;html=1;exitX=0.5;exitY=1;exitDx=0;exitDy=0;entryX=0.5;entryY=0;entryDx=0;entryDy=0;strokeWidth=3;" edge="1" parent="1" target="f0zCHSIk-jJhl_KyQ2l7-14">
          <mxGeometry relative="1" as="geometry">
            <mxPoint x="390" y="570" as="sourcePoint"/>
          </mxGeometry>
        </mxCell>
        <mxCell id="f0zCHSIk-jJhl_KyQ2l7-26" value="" style="edgeStyle=none;rounded=0;orthogonalLoop=1;jettySize=auto;html=1;strokeWidth=3;" edge="1" parent="1" source="f0zCHSIk-jJhl_KyQ2l7-10" target="f0zCHSIk-jJhl_KyQ2l7-25">
          <mxGeometry relative="1" as="geometry"/>
        </mxCell>
        <mxCell id="f0zCHSIk-jJhl_KyQ2l7-34" style="edgeStyle=orthogonalEdgeStyle;curved=1;rounded=0;orthogonalLoop=1;jettySize=auto;html=1;exitX=0;exitY=0.5;exitDx=0;exitDy=0;entryX=0;entryY=0.75;entryDx=0;entryDy=0;strokeWidth=3;" edge="1" parent="1" source="f0zCHSIk-jJhl_KyQ2l7-10" target="f0zCHSIk-jJhl_KyQ2l7-13">
          <mxGeometry relative="1" as="geometry">
            <Array as="points">
              <mxPoint x="300" y="420"/>
              <mxPoint x="300" y="225"/>
            </Array>
          </mxGeometry>
        </mxCell>
        <mxCell id="f0zCHSIk-jJhl_KyQ2l7-10" value="Ты в бою?" style="rhombus;whiteSpace=wrap;html=1;fillColor=#f5f5f5;strokeColor=#666666;fontColor=#333333;" vertex="1" parent="1">
          <mxGeometry x="330" y="380" width="120" height="80" as="geometry"/>
        </mxCell>
        <mxCell id="f0zCHSIk-jJhl_KyQ2l7-55" style="edgeStyle=orthogonalEdgeStyle;curved=1;rounded=0;orthogonalLoop=1;jettySize=auto;html=1;exitX=1;exitY=0.5;exitDx=0;exitDy=0;entryX=1;entryY=0.5;entryDx=0;entryDy=0;strokeWidth=3;" edge="1" parent="1" source="f0zCHSIk-jJhl_KyQ2l7-13" target="f0zCHSIk-jJhl_KyQ2l7-43">
          <mxGeometry relative="1" as="geometry">
            <Array as="points">
              <mxPoint x="490" y="210"/>
              <mxPoint x="490" y="1100"/>
            </Array>
          </mxGeometry>
        </mxCell>
        <mxCell id="f0zCHSIk-jJhl_KyQ2l7-13" value="Жди подходящего момента" style="rounded=0;whiteSpace=wrap;html=1;fillColor=#f5f5f5;strokeColor=#666666;fontColor=#333333;" vertex="1" parent="1">
          <mxGeometry x="330" y="180" width="120" height="60" as="geometry"/>
        </mxCell>
        <mxCell id="f0zCHSIk-jJhl_KyQ2l7-18" value="" style="edgeStyle=none;rounded=0;orthogonalLoop=1;jettySize=auto;html=1;strokeWidth=3;" edge="1" parent="1" source="f0zCHSIk-jJhl_KyQ2l7-14" target="f0zCHSIk-jJhl_KyQ2l7-16">
          <mxGeometry relative="1" as="geometry"/>
        </mxCell>
        <mxCell id="f0zCHSIk-jJhl_KyQ2l7-37" style="edgeStyle=orthogonalEdgeStyle;curved=1;rounded=0;orthogonalLoop=1;jettySize=auto;html=1;exitX=0;exitY=0.5;exitDx=0;exitDy=0;entryX=0;entryY=0.25;entryDx=0;entryDy=0;strokeWidth=3;" edge="1" parent="1" source="f0zCHSIk-jJhl_KyQ2l7-14" target="f0zCHSIk-jJhl_KyQ2l7-13">
          <mxGeometry relative="1" as="geometry">
            <Array as="points">
              <mxPoint x="280" y="650"/>
              <mxPoint x="280" y="195"/>
            </Array>
          </mxGeometry>
        </mxCell>
        <mxCell id="f0zCHSIk-jJhl_KyQ2l7-14" value="Хочешь бонус?" style="rhombus;whiteSpace=wrap;html=1;fillColor=#f5f5f5;strokeColor=#666666;fontColor=#333333;" vertex="1" parent="1">
          <mxGeometry x="330" y="610" width="120" height="80" as="geometry"/>
        </mxCell>
        <mxCell id="f0zCHSIk-jJhl_KyQ2l7-19" value="" style="edgeStyle=none;rounded=0;orthogonalLoop=1;jettySize=auto;html=1;strokeWidth=3;" edge="1" parent="1" source="f0zCHSIk-jJhl_KyQ2l7-16" target="f0zCHSIk-jJhl_KyQ2l7-17">
          <mxGeometry relative="1" as="geometry"/>
        </mxCell>
        <mxCell id="f0zCHSIk-jJhl_KyQ2l7-16" value="Сбрось от 1 до N карт в уплату способности. Уменьши N на выбранное число." style="rounded=0;whiteSpace=wrap;html=1;fillColor=#fff2cc;strokeColor=#d6b656;" vertex="1" parent="1">
          <mxGeometry x="330" y="720" width="120" height="80" as="geometry"/>
        </mxCell>
        <mxCell id="f0zCHSIk-jJhl_KyQ2l7-38" style="edgeStyle=orthogonalEdgeStyle;curved=1;rounded=0;orthogonalLoop=1;jettySize=auto;html=1;entryX=0;entryY=0;entryDx=0;entryDy=0;strokeWidth=3;exitX=0;exitY=0.5;exitDx=0;exitDy=0;" edge="1" parent="1" source="f0zCHSIk-jJhl_KyQ2l7-41" target="f0zCHSIk-jJhl_KyQ2l7-13">
          <mxGeometry relative="1" as="geometry">
            <mxPoint x="280" y="960" as="sourcePoint"/>
            <Array as="points">
              <mxPoint x="270" y="990"/>
              <mxPoint x="270" y="180"/>
            </Array>
          </mxGeometry>
        </mxCell>
        <mxCell id="f0zCHSIk-jJhl_KyQ2l7-42" value="" style="edgeStyle=orthogonalEdgeStyle;curved=1;rounded=0;orthogonalLoop=1;jettySize=auto;html=1;strokeWidth=3;" edge="1" parent="1" source="f0zCHSIk-jJhl_KyQ2l7-17" target="f0zCHSIk-jJhl_KyQ2l7-41">
          <mxGeometry relative="1" as="geometry"/>
        </mxCell>
        <mxCell id="f0zCHSIk-jJhl_KyQ2l7-17" value="Сторона манчкинов получает бонус +3 за каждую сброшенную карту" style="ellipse;whiteSpace=wrap;html=1;fillColor=#d5e8d4;strokeColor=#82b366;" vertex="1" parent="1">
          <mxGeometry x="320" y="830" width="140" height="90" as="geometry"/>
        </mxCell>
        <mxCell id="f0zCHSIk-jJhl_KyQ2l7-22" value="" style="edgeStyle=none;rounded=0;orthogonalLoop=1;jettySize=auto;html=1;strokeWidth=3;" edge="1" parent="1" source="f0zCHSIk-jJhl_KyQ2l7-20" target="f0zCHSIk-jJhl_KyQ2l7-13">
          <mxGeometry relative="1" as="geometry"/>
        </mxCell>
        <mxCell id="f0zCHSIk-jJhl_KyQ2l7-20" value="N := 3&lt;br&gt;для этого боя" style="shape=hexagon;perimeter=hexagonPerimeter2;whiteSpace=wrap;html=1;fillColor=#f5f5f5;strokeColor=#666666;fontColor=#333333;" vertex="1" parent="1">
          <mxGeometry x="330" y="70" width="120" height="80" as="geometry"/>
        </mxCell>
        <mxCell id="f0zCHSIk-jJhl_KyQ2l7-35" style="edgeStyle=orthogonalEdgeStyle;curved=1;rounded=0;orthogonalLoop=1;jettySize=auto;html=1;exitX=0;exitY=0.5;exitDx=0;exitDy=0;entryX=0;entryY=0.5;entryDx=0;entryDy=0;strokeWidth=3;" edge="1" parent="1" source="f0zCHSIk-jJhl_KyQ2l7-25" target="f0zCHSIk-jJhl_KyQ2l7-13">
          <mxGeometry relative="1" as="geometry">
            <Array as="points">
              <mxPoint x="290" y="530"/>
              <mxPoint x="290" y="210"/>
            </Array>
          </mxGeometry>
        </mxCell>
        <mxCell id="f0zCHSIk-jJhl_KyQ2l7-25" value="В бою есть&lt;br&gt;Андеды?" style="rhombus;whiteSpace=wrap;html=1;fillColor=#f5f5f5;strokeColor=#666666;fontColor=#333333;" vertex="1" parent="1">
          <mxGeometry x="330" y="490" width="120" height="80" as="geometry"/>
        </mxCell>
        <mxCell id="f0zCHSIk-jJhl_KyQ2l7-44" style="edgeStyle=orthogonalEdgeStyle;curved=1;rounded=0;orthogonalLoop=1;jettySize=auto;html=1;exitX=0.5;exitY=1;exitDx=0;exitDy=0;entryX=0.5;entryY=0;entryDx=0;entryDy=0;strokeWidth=3;" edge="1" parent="1" source="f0zCHSIk-jJhl_KyQ2l7-41" target="f0zCHSIk-jJhl_KyQ2l7-43">
          <mxGeometry relative="1" as="geometry"/>
        </mxCell>
        <mxCell id="f0zCHSIk-jJhl_KyQ2l7-41" value="N &amp;gt; 0?" style="rhombus;whiteSpace=wrap;html=1;fillColor=#f5f5f5;strokeColor=#666666;fontColor=#333333;" vertex="1" parent="1">
          <mxGeometry x="330" y="950" width="120" height="80" as="geometry"/>
        </mxCell>
        <mxCell id="f0zCHSIk-jJhl_KyQ2l7-43" value="Конец боя" style="shape=hexagon;perimeter=hexagonPerimeter2;whiteSpace=wrap;html=1;fillColor=#d5e8d4;strokeColor=#82b366;" vertex="1" parent="1">
          <mxGeometry x="330" y="1060" width="120" height="80" as="geometry"/>
        </mxCell>
        <mxCell id="f0zCHSIk-jJhl_KyQ2l7-45" value="&lt;b&gt;Нет&lt;/b&gt;" style="text;html=1;strokeColor=none;fillColor=none;align=center;verticalAlign=middle;whiteSpace=wrap;rounded=0;" vertex="1" parent="1">
          <mxGeometry x="390" y="1030" width="40" height="20" as="geometry"/>
        </mxCell>
        <mxCell id="f0zCHSIk-jJhl_KyQ2l7-46" value="&lt;b&gt;Нет&lt;/b&gt;" style="text;html=1;strokeColor=none;fillColor=none;align=center;verticalAlign=middle;whiteSpace=wrap;rounded=0;" vertex="1" parent="1">
          <mxGeometry x="310" y="620" width="40" height="20" as="geometry"/>
        </mxCell>
        <mxCell id="f0zCHSIk-jJhl_KyQ2l7-47" value="&lt;b&gt;Нет&lt;/b&gt;" style="text;html=1;strokeColor=none;fillColor=none;align=center;verticalAlign=middle;whiteSpace=wrap;rounded=0;" vertex="1" parent="1">
          <mxGeometry x="310" y="500" width="40" height="20" as="geometry"/>
        </mxCell>
        <mxCell id="f0zCHSIk-jJhl_KyQ2l7-48" value="&lt;b&gt;Нет&lt;/b&gt;" style="text;html=1;strokeColor=none;fillColor=none;align=center;verticalAlign=middle;whiteSpace=wrap;rounded=0;" vertex="1" parent="1">
          <mxGeometry x="310" y="390" width="40" height="20" as="geometry"/>
        </mxCell>
        <mxCell id="f0zCHSIk-jJhl_KyQ2l7-49" value="&lt;b&gt;Нет&lt;/b&gt;" style="text;html=1;strokeColor=none;fillColor=none;align=center;verticalAlign=middle;whiteSpace=wrap;rounded=0;" vertex="1" parent="1">
          <mxGeometry x="310" y="280" width="40" height="20" as="geometry"/>
        </mxCell>
        <mxCell id="f0zCHSIk-jJhl_KyQ2l7-50" value="&lt;b&gt;Да&lt;/b&gt;" style="text;html=1;strokeColor=none;fillColor=none;align=center;verticalAlign=middle;whiteSpace=wrap;rounded=0;" vertex="1" parent="1">
          <mxGeometry x="390" y="350" width="40" height="20" as="geometry"/>
        </mxCell>
        <mxCell id="f0zCHSIk-jJhl_KyQ2l7-51" value="&lt;b&gt;Да&lt;/b&gt;" style="text;html=1;strokeColor=none;fillColor=none;align=center;verticalAlign=middle;whiteSpace=wrap;rounded=0;" vertex="1" parent="1">
          <mxGeometry x="390" y="460" width="40" height="20" as="geometry"/>
        </mxCell>
        <mxCell id="f0zCHSIk-jJhl_KyQ2l7-52" value="&lt;b&gt;Да&lt;/b&gt;" style="text;html=1;strokeColor=none;fillColor=none;align=center;verticalAlign=middle;whiteSpace=wrap;rounded=0;" vertex="1" parent="1">
          <mxGeometry x="390" y="570" width="40" height="20" as="geometry"/>
        </mxCell>
        <mxCell id="f0zCHSIk-jJhl_KyQ2l7-53" value="&lt;b&gt;Да&lt;/b&gt;" style="text;html=1;strokeColor=none;fillColor=none;align=center;verticalAlign=middle;whiteSpace=wrap;rounded=0;" vertex="1" parent="1">
          <mxGeometry x="390" y="690" width="40" height="20" as="geometry"/>
        </mxCell>
        <mxCell id="f0zCHSIk-jJhl_KyQ2l7-54" value="&lt;b&gt;Да&lt;/b&gt;" style="text;html=1;strokeColor=none;fillColor=none;align=center;verticalAlign=middle;whiteSpace=wrap;rounded=0;" vertex="1" parent="1">
          <mxGeometry x="310" y="960" width="40" height="20" as="geometry"/>
        </mxCell>
        <mxCell id="f0zCHSIk-jJhl_KyQ2l7-56" value="&lt;b&gt;Не дождался&lt;/b&gt;" style="text;html=1;strokeColor=none;fillColor=none;align=center;verticalAlign=middle;whiteSpace=wrap;rounded=0;" vertex="1" parent="1">
          <mxGeometry x="450" y="180" width="70" height="30" as="geometry"/>
        </mxCell>
      </root>
    </mxGraphModel>
  </diagram>
</mxfile>
